<svg width="239" height="212" viewBox="0 0 239 212" fill="none" xmlns="http://www.w3.org/2000/svg">
<path d="M91.2248 78.3122C87.4935 115.976 108.391 154.095 119.293 168.275C135.994 148.959 151.47 111.974 150.667 80.731C150.03 55.9576 131.137 17.2253 120.786 0.946771C112.487 11.0421 94.9562 40.6485 91.2248 78.3122Z" fill="#EDEDED"/>
<path d="M131.561 73.3127C113.11 103.622 115.582 149.25 119.294 168.275C141.562 161.878 170.133 139.737 182.062 112.183C191.521 90.335 190.81 45.1029 188.424 24.6016C177.158 28.2098 150.012 43.0036 131.561 73.3127Z" fill="url(#paint0_linear_198_875)" fill-opacity="0.8"/>
<path d="M167.971 93.5661C139.745 108.4 123.768 149.503 119.294 168.275C141.164 176.513 174.534 174.955 195.999 158.473C213.02 145.404 230.682 105.792 236.9 86.5613C225.685 82.7157 196.198 78.7328 167.971 93.5661Z" fill="url(#paint1_linear_198_875)" fill-opacity="0.9"/>
<path d="M106.663 73.3127C125.114 103.622 123.005 149.25 119.294 168.275C97.0255 161.878 68.0917 139.737 56.1623 112.183C46.7031 90.335 47.4141 45.1029 49.8 24.6016C61.0666 28.2098 88.2126 43.0036 106.663 73.3127Z" fill="url(#paint2_linear_198_875)" fill-opacity="0.8"/>
<path d="M70.2537 93.565C98.48 108.398 114.82 149.502 119.294 168.274C97.4241 176.512 63.6907 174.954 42.2255 158.472C25.2051 145.403 7.54316 105.791 1.32511 86.5602C12.5403 82.7145 42.0274 78.7316 70.2537 93.565Z" fill="url(#paint3_linear_198_875)" fill-opacity="0.9"/>
<path d="M33 25L200 174" stroke="#FF3737" stroke-width="10" stroke-linecap="round"/>
<defs>
<linearGradient id="paint0_linear_198_875" x1="144.743" y1="42.8067" x2="160.514" y2="194.773" gradientUnits="userSpaceOnUse">
<stop stop-color="white"/>
<stop offset="1" stop-color="#CECECE"/>
</linearGradient>
<linearGradient id="paint1_linear_198_875" x1="171.386" y1="83.6459" x2="203.877" y2="165.704" gradientUnits="userSpaceOnUse">
<stop stop-color="#EBEBEB"/>
<stop offset="1" stop-color="#D9D9D9"/>
</linearGradient>
<linearGradient id="paint2_linear_198_875" x1="93.4815" y1="42.8067" x2="77.7106" y2="194.773" gradientUnits="userSpaceOnUse">
<stop stop-color="#F5F5F5"/>
<stop offset="1" stop-color="#DDDDDD"/>
</linearGradient>
<linearGradient id="paint3_linear_198_875" x1="66.8391" y1="83.6447" x2="34.3479" y2="165.702" gradientUnits="userSpaceOnUse">
<stop stop-color="#EBEBEB"/>
<stop offset="1" stop-color="#D3D3D3"/>
</linearGradient>
</defs>
</svg>
